<svg width="728" height="164" viewBox="0 0 728 164" fill="none" xmlns="http://www.w3.org/2000/svg">
<path d="M46.7231 125.179C37.678 125.179 28.9053 123.98 20.4051 121.582C12.0138 119.075 5.2572 115.86 0.135254 111.937L9.1259 91.9913C14.0299 95.588 19.8602 98.4763 26.6168 100.656C33.3734 102.836 40.13 103.926 46.8866 103.926C54.406 103.926 59.9639 102.836 63.5602 100.656C67.1564 98.3673 68.9545 95.37 68.9545 91.6644C68.9545 88.9396 67.8648 86.7053 65.6852 84.9615C63.6146 83.1086 60.8902 81.6373 57.5119 80.5473C54.2426 79.4574 49.7745 78.2586 44.1077 76.9507C35.3895 74.8799 28.2514 72.809 22.6936 70.7382C17.1357 68.6674 12.3407 65.3432 8.30856 60.7656C4.38538 56.188 2.42378 50.0846 2.42378 42.4552C2.42378 35.8068 4.22191 29.8124 7.81817 24.4719C11.4144 19.0223 16.8088 14.7172 24.0013 11.5565C31.3028 8.39579 40.1845 6.81543 50.6463 6.81543C57.9478 6.81543 65.0858 7.68735 72.0604 9.4312C79.035 11.175 85.1377 13.6818 90.3686 16.9515L82.1953 37.0602C71.6245 31.0658 61.0537 28.0685 50.4828 28.0685C43.0724 28.0685 37.569 29.2674 33.9728 31.6652C30.4855 34.063 28.7418 37.2237 28.7418 41.1474C28.7418 45.071 30.7579 48.0138 34.7901 49.9756C38.9312 51.8284 45.1974 53.6812 53.5887 55.5341C62.3069 57.6049 69.4449 59.6757 75.0028 61.7465C80.5606 63.8173 85.3012 67.0871 89.2243 71.5557C93.2565 76.0243 95.2726 82.0732 95.2726 89.7025C95.2726 96.242 93.42 102.236 89.7147 107.686C86.1185 113.026 80.6696 117.277 73.3681 120.438C66.0666 123.599 57.185 125.179 46.7231 125.179ZM272.379 125.179C264.642 125.179 257.504 123.762 250.965 120.928C244.535 117.986 239.25 113.844 235.109 108.503L249.821 90.8469C256.033 99.2392 263.116 103.435 271.071 103.435C281.86 103.435 287.255 97.1139 287.255 84.471V30.0304H247.042V8.77725H313.573V82.9996C313.573 97.0594 310.085 107.631 303.111 114.716C296.136 121.691 285.892 125.179 272.379 125.179ZM339.73 8.77725H366.211V123.217H339.73V8.77725ZM468.725 98.6942H415.599L405.464 123.217H378.328L429.33 8.77725H455.484L506.649 123.217H478.86L468.725 98.6942ZM460.388 78.5855L442.244 34.7714L424.099 78.5855H460.388ZM591.427 123.217L569.359 91.3374H568.051H545.003V123.217H518.521V8.77725H568.051C578.186 8.77725 586.959 10.4666 594.37 13.8453C601.891 17.224 607.667 22.0196 611.699 28.232C615.731 34.4445 617.747 41.8013 617.747 50.3026C617.747 58.8038 615.676 66.1606 611.535 72.3731C607.503 78.4765 601.727 83.1631 594.206 86.4328L619.872 123.217H591.427ZM590.937 50.3026C590.937 43.8721 588.866 38.9676 584.725 35.5889C580.584 32.1012 574.536 30.3573 566.58 30.3573H545.003V70.2478H566.58C574.536 70.2478 580.584 68.5039 584.725 65.0162C588.866 61.5286 590.937 56.624 590.937 50.3026ZM727.324 101.964V123.217H638.725V8.77725H725.199V30.0304H665.043V54.8801H718.17V75.4793H665.043V101.964H727.324Z" fill="#82878B"/>
<path d="M132.75 78.7249C130.293 69.0797 131.619 59.9561 136.729 51.3538C141.838 42.7515 149.215 37.2219 158.86 34.7649C168.506 32.308 177.629 33.6342 186.231 38.7436C194.834 43.8531 200.363 51.2303 202.82 60.8755C205.277 70.5206 203.951 79.6443 198.842 88.2465C193.732 96.8488 186.355 102.378 176.71 104.835C167.065 107.292 157.941 105.966 149.339 100.857C140.736 95.7472 135.207 88.37 132.75 78.7249ZM109.284 153.99C109.975 156.701 111.563 158.795 114.049 160.271C116.535 161.748 119.133 162.141 121.844 161.45C124.659 160.733 126.753 159.145 128.125 156.685L148.136 123.107C159.115 127.194 170.34 127.777 181.81 124.856C189.265 122.956 196.026 119.693 202.093 115.067C208.159 110.44 213.029 105.036 216.7 98.8539C220.372 92.6721 222.788 85.8107 223.949 78.2699C225.109 70.7291 224.74 63.231 222.84 55.7756C220.941 48.3202 217.678 41.5592 213.052 35.4926C208.425 29.4259 203.021 24.5567 196.839 20.8849C190.657 17.2131 183.796 14.797 176.255 13.6367C168.714 12.4763 161.216 12.8457 153.761 14.7448C146.305 16.644 139.544 19.9069 133.478 24.5336C127.411 29.1602 122.542 34.5645 118.87 40.7464C115.198 46.9282 112.782 53.7896 111.622 61.3304C110.461 68.8712 110.831 76.3693 112.73 83.8247C115.652 95.2946 121.533 104.872 130.376 112.558L110.385 146.215C108.947 148.635 108.58 151.227 109.284 153.99Z" fill="#FF6600"/>
<circle cx="167.709" cy="70.1061" r="37.9658" fill="#FF6600" fill-opacity="0.16"/>
</svg>
